# xmcd
# 
# Track frame offsets:
#     183
#     18390
#     34563
#     54050
#     70158
#     84625
#     103178
#     121060
#     136628
#     154623
#     174363
#     194970
#     212180
#     229750
# 
# Disc length: 3327
# 
# Revision: 3
# Processed by: cddbd v1.5.2PL0 Copyright (c) Steve Scherf et al.
# Submitted via: fre:ac v1.0.17
# 
DISCID=b30cfd0e
DTITLE=Various Artist - All The Best Love Duets Vol 1
DYEAR=0
DGENRE=Blues
TTITLE0=George Michael and Aretha Franklin/I Knew You Were Waiting (For Me)
TTITLE1=Patti Austin and James Ingram/Baby, Come To Me
TTITLE2=David Grant and Jaki Graham/Could It Be I'm Falling In Love
TTITLE3=Linda Ronstadt  ft Aaron Neville/Don't Know Much
TTITLE4=Kylie Monogue and Keith Washington/If You Were With Me Now
TTITLE5=Aretha Franklin with Geoarg Benson/Love All The Hurt Away
TTITLE6=Womack and Womack/Teardrops (Remix)
TTITLE7=Mica Paris and Will Downing/Where Is The Love
TTITLE8=Peaches and Herb/Reunited
TTITLE9=Aretha Franklin with Elton John/Through The Storm
TTITLE10=Doinne Warwick with Jeffrey Osborne/Love Power
TTITLE11=Alexander O'Neal and Cherelle/Saturday Love
TTITLE12=Joe Cocker and Jennifer Warnes/Up Where We Belong
TTITLE13=Kiki Dee and Elton John/Don't Go Breaking My Heart
EXTD=ID3G:   0
EXTT0=George Michael and Aretha Franklin
EXTT1=Patti Austin And James Ingram
EXTT2=David Grant And Jaki Graham
EXTT3=Linda Ronstadt Featuring Aaron Neville
EXTT4=Kylie Minogue And Keith Washington
EXTT5=Aretha Franklin And George Benson
EXTT6=Womack and Womack
EXTT7=Mica Paris And Will Downing
EXTT8=Peaches and Herb
EXTT9=Aretha Franklin With Elton John
EXTT10=Dionne Warwick With Jeffrey Osborne
EXTT11=Alexander O'Neal And Cherelle
EXTT12=Joe Cocker And Jennifer Warnes
EXTT13=Kiki Dee And Elton John
PLAYORDER=
